<?xml version="1.0" encoding="utf-8" ?><svg xmlns="http://www.w3.org/2000/svg" xmlns:xlink="http://www.w3.org/1999/xlink" width="821" height="616" viewBox="0 0 821 616"><defs><linearGradient id="gradient_0" gradientUnits="userSpaceOnUse" x1="776.39923" y1="288.8566" x2="268.71252" y2="83.698921"><stop offset="0" stop-color="#061733"/><stop offset="1" stop-color="#0B355C"/></linearGradient></defs><path fill="url(#gradient_0)" d="M307.218 0L315.378 0C318.475 1.00483 337.194 1.85761 342.015 2.20298L411.277 7.14642L673.804 25.1658L762.745 31.1938L787.045 32.9374C795.627 33.5259 806.609 32.8603 813.315 38.8175C816.947 43.5072 818.676 46.6428 818.541 52.6842C817.513 59.2364 816.339 65.7086 815.163 72.2339C813.264 81.2513 811.736 90.9468 810.101 100.073L800.188 155.728L771.983 312.222C772.73 313.231 772.511 312.923 773.805 313.5C769.621 313.443 760.951 311.526 756.465 310.787L715.017 303.653C703.795 301.646 687.129 296.257 682.89 311.424C680.861 318.684 679.815 328.165 678.623 335.725L669.603 392.362L666.581 411.774C666.176 414.319 665.482 419.59 664.801 421.91C664.427 424.048 663.676 429.766 663.225 431.534C662.316 430.264 657.044 429.778 654.993 429.422L650.162 432.717C649.599 432.177 649.542 431.806 649.258 431.07C644.513 434.656 641.308 433.589 635.775 432.506C630.128 431.401 624.489 430.157 618.857 428.972L617.977 429.178L617.96 429.527L620.025 429.697C618.898 430.876 617.476 429.22 616.663 431.417C620.006 429.956 626.054 431.823 629.732 432.566L649.606 436.623C653.585 437.453 658.069 438.634 662.031 439.055C661.625 443.529 660.409 450.913 659.554 455.453C658.641 458.634 650.296 507.288 650.593 508.092L590.351 558.967C577.047 570.228 560.636 583.687 548.025 595.339L543.623 599.006C536.195 601.923 529.821 603.428 521.799 602.063C508.417 599.785 494.716 595.115 481.734 591.229C466.531 586.679 451.39 582.248 436.157 577.896L156.842 497.068L55.3337 467.664L21.0904 457.871C16.669 456.602 3.78722 452.1 0 452.95L0 447.772C1.84978 444.566 2.7828 444.126 5.72066 441.914C11.0973 439.81 19.9401 435.205 25.4491 432.533L63.1371 414.219L98.5634 397.036C104.361 394.224 113.341 390.166 118.709 386.977C121.461 386.444 139.856 376.868 143.395 375.141L194.501 350.278C204.177 345.528 214.234 340.129 224.256 336.247C229.295 334.295 232.719 334.861 237.09 333.702L237.24 332.887C234.955 329.428 235.251 323.597 235.946 319.714C239.58 299.422 243.577 279.177 247.386 258.918L272.773 124.409L287.454 46.5532C289.599 35.1737 291.74 19.6476 295.451 8.77529C297.027 4.15946 302.848 1.55105 307.218 0Z"/><defs><linearGradient id="gradient_1" gradientUnits="userSpaceOnUse" x1="663.18201" y1="418.22986" x2="14.645991" y2="533.34827"><stop offset="0" stop-color="#101A3F"/><stop offset="1" stop-color="#10486E"/></linearGradient></defs><path fill="url(#gradient_1)" d="M238.851 330.943C240.344 334.068 240.761 334.538 244.177 335.822C247.979 337.252 253.532 338.198 257.559 339.02L283.281 344.182C312.913 350.185 341.897 356.448 371.666 362.204L595.864 407.649L647.107 418.042C649.183 418.467 663.621 421.302 664.801 421.91C664.427 424.048 663.676 429.766 663.225 431.534C662.316 430.264 657.044 429.778 654.993 429.422L650.162 432.717C649.599 432.177 649.542 431.806 649.258 431.07C644.513 434.656 641.308 433.589 635.775 432.506C630.128 431.401 624.489 430.157 618.857 428.972L617.977 429.178L617.96 429.527L620.025 429.697C618.898 430.876 617.476 429.22 616.663 431.417C620.006 429.956 626.054 431.823 629.732 432.566L649.606 436.623C653.585 437.453 658.069 438.634 662.031 439.055C661.625 443.529 660.409 450.913 659.554 455.453C658.641 458.634 650.296 507.288 650.593 508.092L590.351 558.967C577.047 570.228 560.636 583.687 548.025 595.339L543.623 599.006C536.195 601.923 529.821 603.428 521.799 602.063C508.417 599.785 494.716 595.115 481.734 591.229C466.531 586.679 451.39 582.248 436.157 577.896L156.842 497.068L55.3337 467.664L21.0904 457.871C16.669 456.602 3.78722 452.1 0 452.95L0 447.772C1.84978 444.566 2.7828 444.126 5.72066 441.914C11.0973 439.81 19.9401 435.205 25.4491 432.533L63.1371 414.219L98.5634 397.036C104.361 394.224 113.341 390.166 118.709 386.977C121.461 386.444 139.856 376.868 143.395 375.141L194.501 350.278C204.177 345.528 214.234 340.129 224.256 336.247C229.295 334.295 232.719 334.861 237.09 333.702L237.24 332.887C237.966 333.218 238.27 333.456 239.053 333.405L238.851 330.943Z"/><path fill="#102A56" d="M395.954 383.258L421.188 388.262L428.028 384.336L428.979 385.421C429.574 385.081 431.072 384.221 431.754 384.28C440.307 385.012 449.296 387.501 457.761 389.229C458.651 389.411 459.516 389.69 460.145 390.188C459.641 391.131 459.51 391.168 458.738 391.873L460.115 392.647C461.457 392.011 462.857 391.317 464.208 390.72C468.939 391.459 484.949 393.996 488.683 395.964C488.926 396.76 488.954 396.379 488.568 397.139L489.575 398.334C490.909 397.69 492.129 397.069 493.521 396.549C502.959 398.375 512.479 400.212 521.879 402.204C520.564 403.24 519.336 404.25 517.926 405.159L519.151 406.419L517.66 407.387L517.598 407.998C520.182 409.102 542.768 414.092 546.244 412.679C546.601 412.534 547.6 411.996 548.001 411.75C548.351 411.976 548.938 412.311 549.196 412.595C548.586 413.554 548.303 413.584 548.471 414.391C550.738 415.437 571.91 419.272 575.866 420.07C574.922 420.319 573.836 420.55 572.981 420.993C575.16 421.489 580.38 422.81 582.385 422.821L583.185 421.844C590.957 423.253 602.443 425.083 609.939 427.121L611.995 427.59C610.398 427.626 609.126 427.532 607.64 428.094C609.839 428.614 612.874 428.96 614.092 430.754L614.16 431.424C613.306 432.246 612.14 433.124 611.895 434.216L612.138 434.743C613.309 434.082 615.849 432.433 616.663 431.417C620.006 429.956 626.054 431.823 629.732 432.566L649.606 436.623C653.585 437.453 658.069 438.634 662.031 439.055C661.625 443.529 660.409 450.913 659.554 455.453L656.73 455.053C655.055 455.397 654.437 455.229 652.814 454.865L652.568 455.171L653.388 456.123L653.047 456.009C649.552 459.183 620.996 483.775 619.337 484.174L617.762 485.219C617.107 487.827 603.567 498.561 600.716 500.36C587.183 497.465 573.481 493.347 560.306 490.574L560.523 491.5L561.33 491.978L561.176 492.313L562.523 493.128C562.68 495.629 558.449 498.045 556.448 499.284L551.78 498.523L551.628 499.997C542.716 497.717 532.756 494.947 523.836 493.083C521.812 494.406 520.033 495.823 517.926 497.114C518.039 496.713 517.97 496.602 517.931 496.151C517.235 496.167 516.909 496.206 516.218 496.306C517.761 495.111 519.307 493.731 520.792 492.449C516.983 491.196 492.732 484.956 489.79 485.085L488.58 483.803C485.044 486.464 481.695 488.894 478.058 491.415C470.546 490.274 457.159 486.494 449.5 484.496L453.782 481.172L451.875 480.418C450.858 481.25 448.517 482.708 447.32 483.495C434.092 480.551 418.616 477.325 405.695 473.45L412.776 468.762C413.358 468.061 414.283 467.287 414.985 466.658L414.812 465.705C416.097 464.308 421.41 462.224 422.271 459.896C421.822 458.977 421.905 459.259 420.606 458.769L358.262 444.285L359.15 443.12C362.645 442.8 376.253 434.005 379.388 431.561C374.547 429.968 366.492 428.157 361.594 427.066L363.411 426.034C367.327 425.054 378.675 417.564 382.334 414.903C378.693 413.756 375.236 413.044 371.513 412.224L372.4 411.001C375.597 411.195 389.151 402.415 392.718 400.298C387.231 398.777 379.642 397.367 373.928 396.163L374.773 395.043C376.965 395.469 379.131 395.827 381.334 396.192C383.832 394.959 397.742 387.292 398.139 385.605C397.064 384.643 395.485 384.561 393.986 384.285C394.66 384.003 395.309 383.613 395.954 383.258Z"/><path fill="#091D37" d="M545.658 469.06C552.229 470.307 559.002 471.79 565.572 473.138C574.421 475.133 583.319 477.072 592.146 479.142C600.664 481.139 609.177 483.501 617.762 485.219C617.107 487.827 603.567 498.561 600.716 500.36C587.183 497.465 573.481 493.347 560.306 490.574C549.693 488.025 537.827 485.368 527.398 482.415C531.754 478.495 540.769 471.926 545.658 469.06Z"/><path fill="#091D37" d="M618.075 448.067C627.161 449.66 644.26 453.333 653.047 456.009C649.552 459.183 620.996 483.775 619.337 484.174C615.75 483.365 601.228 480.532 599.015 478.785L598.945 477.968C600 476.443 612.256 467.284 615.159 464.504L615.577 464.099C613.117 463.252 609.232 462.423 606.612 461.783C605.579 461.684 603.101 460.919 601.991 460.609C605.214 457.281 613.92 451.116 618.075 448.067Z"/><path fill="#091D37" d="M616.663 431.417C620.006 429.956 626.054 431.823 629.732 432.566L649.606 436.623C653.585 437.453 658.069 438.634 662.031 439.055C661.625 443.529 660.409 450.913 659.554 455.453L656.73 455.053C646.932 452.848 637.237 450.648 627.407 448.58C619.661 446.95 609.4 445.2 601.942 442.751C605.11 439.983 608.775 437.289 612.138 434.743C613.309 434.082 615.849 432.433 616.663 431.417Z"/><path fill="#091D37" d="M426.531 460.055C435.571 461.878 445.284 464.216 454.244 466.443C457.957 467.385 463.5 468.497 466.894 469.596C462.172 473.566 456.775 476.688 451.875 480.418C450.858 481.25 448.517 482.708 447.32 483.495C434.092 480.551 418.616 477.325 405.695 473.45L412.776 468.762C416.472 466.813 422.345 462.548 426.531 460.055Z"/><path fill="#091D37" d="M469.575 470.415C473.982 471.106 493.264 474.941 495.984 477.245C495.638 479.548 490.037 482.055 488.58 483.803C485.044 486.464 481.695 488.894 478.058 491.415C470.546 490.274 457.159 486.494 449.5 484.496L453.782 481.172C458.347 478.049 465.02 473.197 469.575 470.415Z"/><path fill="#091D37" d="M554.453 417.46C560.302 418.217 567.206 419.678 572.981 420.993C575.16 421.489 580.38 422.81 582.385 422.821C582.875 423.401 582.764 423.298 583.093 424.004C582.126 425.988 569.5 434.048 567.009 435.498C559.06 433.887 544.85 431.359 537.33 428.954C541.369 425.634 549.831 419.801 554.453 417.46Z"/><path fill="#091D37" d="M587.647 423.907C594.272 425.352 601.044 426.407 607.64 428.094C609.839 428.614 612.874 428.96 614.092 430.754C610.634 433.981 602.584 440.116 598.294 442.017C593.202 441.568 575.271 437.488 570.454 435.81C575.859 431.75 581.753 427.093 587.647 423.907Z"/><path fill="#091D37" d="M532.535 485.424C541.703 487.377 551.98 490.109 561.176 492.313L562.523 493.128C562.68 495.629 558.449 498.045 556.448 499.284L551.78 498.523C543.488 496.007 533.2 494.493 525.332 491.356C528.036 488.881 529.538 487.589 532.535 485.424Z"/><path fill="#091D37" d="M489.575 398.334C490.909 397.69 492.129 397.069 493.521 396.549C502.959 398.375 512.479 400.212 521.879 402.204C520.564 403.24 519.336 404.25 517.926 405.159C515.088 406.796 514.562 407.265 511.228 406.913C504.116 405.504 491.722 403.387 485.221 401.329L489.575 398.334Z"/><path fill="#091D37" d="M428.979 385.421C429.574 385.081 431.072 384.221 431.754 384.28C440.307 385.012 449.296 387.501 457.761 389.229C458.651 389.411 459.516 389.69 460.145 390.188C459.641 391.131 459.51 391.168 458.738 391.873C457.182 392.154 454.852 393.575 453.352 394.389C451.691 394.208 448.699 393.835 447.067 393.868C444.285 392.682 429.229 390.198 423.938 388.671L428.979 385.421Z"/><path fill="#091D37" d="M464.208 390.72C468.939 391.459 484.949 393.996 488.683 395.964C488.926 396.76 488.954 396.379 488.568 397.139C485.379 398.826 484.766 399.524 481.206 400.555C473.111 398.902 463.652 397.46 455.779 395.451C457.065 394.508 458.743 393.512 460.115 392.647C461.457 392.011 462.857 391.317 464.208 390.72Z"/><path fill="#091D37" d="M544.111 450.018C555.038 452.023 567.129 454.627 577.854 457.354C573.902 461.166 564.789 467.683 559.969 470.408C551.267 469.06 542.596 466.694 533.993 464.811C531.403 464.245 528.622 463.623 526.12 462.779L529.868 459.499L539.538 452.349C541.037 451.55 542.557 450.696 544.111 450.018Z"/><path fill="#091D37" d="M581.245 458.262C586.991 458.783 599.414 461.767 605.671 463.058C607.677 463.482 610.049 463.922 611.977 464.524C608.499 467.765 598.64 475.796 594.668 478.205C585.61 476.318 576.584 474.261 567.556 472.23L563.596 471.001C568.389 466.996 575.809 461.12 581.245 458.262Z"/><path fill="#091D37" d="M513.331 461.696C516.549 461.765 537.859 467.177 542.172 468.282C539.854 470.476 527.227 480.785 524.661 481.318C520.21 480.65 498.823 475.663 494.924 474.064C500.804 469.737 506.832 464.935 513.331 461.696Z"/><path fill="#091D37" d="M479.519 454.603C484.939 454.779 504.561 459.278 509.724 461.059C505.629 464.407 496.115 471.029 491.735 473.344C488.162 473.375 465.196 467.755 461.552 466.32C465.402 462.958 474.817 456.638 479.519 454.603Z"/><path fill="#091D37" d="M585.134 441.261C588.076 441.013 610.014 446.291 614.766 447.286C612.219 450.428 602.186 458.506 598.427 460.048C590.021 458.498 575.819 455.649 567.679 453.373C572.88 449.055 579.166 444.432 585.134 441.261Z"/><path fill="#091D37" d="M551.831 434.031C556.282 434.197 577.159 439.106 581.568 440.242C578.123 443.549 568.566 450.674 564.4 452.609C557.069 451.519 540.482 448.039 533.622 445.922C539.21 442.163 545.878 436.934 551.831 434.031Z"/><path fill="#091D37" d="M446.661 446.675C448.705 446.876 451.399 447.541 453.47 447.99C460.916 449.633 468.737 451.52 476.128 453.444C472.493 456.853 460.955 465.338 456.318 465.455C448.588 462.868 436.916 461.423 428.31 458.568C431.92 455.308 442.208 448.647 446.661 446.675Z"/><path fill="#091D37" d="M479.729 436.475C483.052 436.378 504.711 441.278 508.847 442.328C505.118 445.707 495.07 452.619 490.561 454.714C486.211 454.716 466.517 449.71 461.733 448.015C466.298 444.314 474.545 439.1 479.729 436.475Z"/><path fill="#091D37" d="M415.152 439.582C417.892 440.069 420.649 440.629 423.384 441.161C429.038 442.559 438.034 444.147 443.096 446.093C437.702 449.901 427.19 458.834 420.821 457.45C416.738 456.537 398.815 452.898 396.467 451.244L396.491 450.696C399.039 448.2 411.707 440.879 415.152 439.582Z"/><path fill="#091D37" d="M383.025 432.038C391.336 433.581 403.561 436.455 411.594 438.881C408.268 441.261 395.96 449.098 392.458 450.692C389.059 450.175 366.162 445.05 364.303 443.636L364.464 443.095C368.31 440.116 378.693 434.32 383.025 432.038Z"/><path fill="#091D37" d="M512.301 443.379C515.265 443.709 537.586 448.22 539.669 449.287C539.398 450.366 538.682 450.705 537.727 451.57L528.075 458.471C525.907 460.046 524.85 460.698 522.476 461.954C517.819 461.306 499.33 457.135 495.213 455.389L494.998 454.799C497.432 452.318 509.145 444.651 512.301 443.379Z"/><path fill="#091D37" d="M487.636 420.85C490.733 420.75 514.171 425.396 515.95 426.963C513.898 429.918 502.714 437.144 499.156 438.512C495.657 438.164 471.551 433.69 470.63 431.651C473.132 429.134 484.241 422.393 487.636 420.85Z"/><path fill="#091D37" d="M425.007 407.016C428.119 407.686 431.253 408.289 434.376 408.905C440.46 410.119 448.145 412.155 453.871 413.157C449.154 416.456 441.032 422.088 435.709 424.411L430.991 423.827C423.483 422.099 412.371 420.393 405.307 417.988C411.053 414.353 418.753 408.922 425.007 407.016Z"/><path fill="#091D37" d="M397.521 433.646C400.749 431.376 404.432 429.083 407.652 426.957C416.277 421.263 419.283 422.546 428.814 424.701L444.919 428.457C441.767 431.16 428.708 440.318 424.752 440.055C416.65 438.517 405.433 436.125 397.521 433.646Z"/><path fill="#091D37" d="M448.542 429.365C451.971 429.739 458.299 431.207 461.89 431.93C466.476 433.011 472.366 434.169 476.703 435.579C471.078 439.585 465.031 443.964 458.817 446.947C457.965 447.357 456.107 447.047 455.164 446.932C451.323 446.052 431.501 442.94 431.626 439.879C433.384 437.282 445.296 430.743 448.542 429.365Z"/><path fill="#091D37" d="M520.18 427.671C524.584 427.517 543.352 431.909 547.975 433.25C544.618 436.235 534.533 443.704 530.572 445.521C521.286 443.957 511.409 441.544 502.273 439.291C508.162 435.201 513.896 431.133 520.18 427.671Z"/><path fill="#091D37" d="M523.089 411.141C526.237 411.018 548.015 415.715 550.9 417.004C548.222 419.569 537.486 426.457 534.207 428.226C529.297 428.021 509.959 423.832 505.286 422.254C509.211 418.979 518.513 413.448 523.089 411.141Z"/><path fill="#091D37" d="M457.729 413.876C461.427 414.436 465.588 415.457 469.248 416.302C474.32 417.393 479.315 418.419 484.229 420.117C479.3 423.54 472.763 428.425 467.261 430.976C466.621 431.273 464.435 431.051 463.628 430.976C457.075 429.099 445.437 427.17 438.093 425.506C443.019 422.061 452.407 416.026 457.729 413.876Z"/><path fill="#091D37" d="M385.432 415.612C391.197 416.156 407.417 419.938 413.345 421.38C410.59 423.835 398.434 431.069 394.945 432.821C391.678 433.015 370.799 427.894 367.441 426.692C371.83 423.121 380.39 418.32 385.432 415.612Z"/><path fill="#091D37" d="M492.098 404.582C497.107 405.142 505.2 407.054 510.245 408.145C513.849 408.887 516.078 409.352 519.597 410.543C515.031 413.67 507.126 419.042 502.265 421.679C495.272 420.824 480.621 417.73 474.164 415.667C476.39 413.919 478.383 412.557 480.715 410.974C484.484 408.605 487.983 406.298 492.098 404.582Z"/><path fill="#091D37" d="M460.534 398.056C469.779 399.702 479.539 401.376 488.475 404.226C486.122 405.896 482.697 407.902 480.146 409.612C477.85 411.047 472.538 414.659 470.246 415.004C461.225 412.809 451.706 411.861 442.744 408.894C446.66 405.648 455.995 400.347 460.534 398.056Z"/><path fill="#091D37" d="M395.434 401.152C398.023 400.638 417.462 405.2 420.658 406.284C416.177 409.793 407.859 414.69 402.848 417.285C398.519 417.059 380.677 413.147 376.914 411.736C380.784 408.326 390.696 403.33 395.434 401.152Z"/><path fill="#091D37" d="M402.026 386.278C405.266 385.912 424.914 390.379 428.847 391.447C425.502 394.151 414.909 400.134 410.965 402.104C407.122 401.975 388 398.045 384.413 396.673C389.415 392.994 396.521 389.241 402.026 386.278Z"/><path fill="#091D37" d="M432.072 392.116C436.621 392.737 441.477 394.022 446.12 394.725C449.883 395.755 454 396.18 457.465 397.369C452.964 400.327 441.924 408.425 437.25 408.074C430.11 406.669 420.555 405.179 413.9 402.763C417.789 399.786 427.563 394.232 432.072 392.116Z"/><path fill="#143466" d="M240.392 352.14C240.73 351.414 241.03 351.253 241.638 350.723C247.545 352.594 256.81 354.359 263.032 355.579C264.959 354.699 266.797 353.891 268.642 352.845L269.696 354.083C270.652 353.583 272.897 352.373 273.841 352.423C283.344 352.928 298.681 356.625 307.908 358.844L308.16 359.429L307.822 360.202L308.911 361.052C311.989 360.034 313.928 360.002 317.135 360.621C324.268 361.997 331.506 363.447 338.591 365.044L339.029 365.662L338.391 366.432L339.433 367.722L342.762 366.001C347.062 366.823 364.152 369.821 367.611 371.084C368.016 371.68 368.035 371.474 368.062 372.037L369.037 373.272C374.816 370.664 383.944 374.55 390.175 375.248C391.78 375.428 395.309 376.443 396.645 377.265C396.385 378.284 396.611 377.797 395.711 378.643L395.579 379.445L396.109 380.181L392.505 382.252C393.328 382.503 395.197 383.13 395.954 383.258C395.309 383.613 394.66 384.003 393.986 384.285C395.485 384.561 397.064 384.643 398.139 385.605C397.742 387.292 383.832 394.959 381.334 396.192C379.131 395.827 376.965 395.469 374.773 395.043L373.928 396.163C379.642 397.367 387.231 398.777 392.718 400.298C389.151 402.415 375.597 411.195 372.4 411.001L371.513 412.224C375.236 413.044 378.693 413.756 382.334 414.903C378.675 417.564 367.327 425.054 363.411 426.034L361.594 427.066C366.492 428.157 374.547 429.968 379.388 431.561C376.253 434.005 362.645 442.8 359.15 443.12L358.262 444.285C351.764 442.447 342.934 440.644 336.246 439.092C323.41 436.112 310.258 432.966 297.373 430.314C289.047 428.069 278.223 426.201 270.372 423.769C263.477 427.155 256.996 431.289 250.214 434.765L249.245 433.522L246.003 435.106C240.676 434.29 233.62 432.261 228.216 431.017C224.731 430.215 216.721 428.451 213.647 427.244L213.573 426.808L214.543 426.001C213.976 425.584 214.039 425.55 213.596 424.97L210.343 426.31C207.259 425.913 186.675 421.247 184.273 420.05L184.383 419.393L183.536 418.175C177.368 420.519 165.393 414.933 158.898 414.06C157.864 413.921 155.663 413.266 154.968 412.512L155.452 411.893L154.196 410.953C160.469 407.571 167.059 404.561 173.417 401.141C166.576 398.99 157.739 397.041 150.67 395.419C152.031 395.253 152.319 395.171 153.604 394.687C152.644 394.314 152.505 394.357 151.873 393.529C153.032 391.995 169.034 384.756 171.712 383.816C173.62 384.373 175.887 384.761 177.864 385.149C178.491 384.501 178.758 384.413 179.536 383.972C178.032 383.768 175.195 382.961 173.614 382.556C180.291 379.269 188.586 374.91 195.425 372.495C197.024 372.868 198.675 373.212 200.283 373.564L199.02 372.573L199.552 372.014L198.135 371.371L198.109 370.852C201.13 368.872 205.045 367.194 208.36 365.674C212.51 363.77 215.251 361.777 219.861 362.836L221.285 361.579C220.356 361.352 220.769 361.561 220.037 360.866C221.329 358.804 237.388 351.61 240.392 352.14Z"/><path fill="#091D37" d="M171.712 383.816C173.62 384.373 175.887 384.761 177.864 385.149C190.144 388.253 202.859 390.744 215.189 393.731C220.855 395.104 227.431 396.334 232.905 398.097C226.958 401.256 219.124 405.737 213.221 408.557C212.22 408.361 209.847 407.827 208.943 407.76C190.449 403.591 172.069 398.877 153.604 394.687C152.644 394.314 152.505 394.357 151.873 393.529C153.032 391.995 169.034 384.756 171.712 383.816Z"/><path fill="#091D37" d="M195.425 372.495C197.024 372.868 198.675 373.212 200.283 373.564C212.355 376.46 226.835 379.976 238.968 382.392C232.814 386.166 225.883 389.551 219.489 393.036C218.02 392.863 216.571 392.619 215.129 392.288C203.256 389.56 191.446 386.541 179.536 383.972C178.032 383.768 175.195 382.961 173.614 382.556C180.291 379.269 188.586 374.91 195.425 372.495Z"/><path fill="#091D37" d="M235.631 415.688C246.255 418.196 256.617 420.579 267.187 423.336C261.418 426.858 255.17 430.219 249.245 433.522L246.003 435.106C240.676 434.29 233.62 432.261 228.216 431.017C224.731 430.215 216.721 428.451 213.647 427.244L213.573 426.808L214.543 426.001C221.391 422.78 228.668 419.045 235.631 415.688Z"/><path fill="#091D37" d="M199.552 372.014L198.135 371.371L198.109 370.852C201.13 368.872 205.045 367.194 208.36 365.674C212.51 363.77 215.251 361.777 219.861 362.836C228.356 364.653 241.234 367.076 249.071 369.717C245.102 372.429 235.599 377.139 230.989 379.048C220.616 376.686 209.954 374.127 199.552 372.014Z"/><path fill="#091D37" d="M205.039 408.691C210.311 409.216 227.206 413.297 232.497 415.223C226.793 417.878 219.008 421.768 213.596 424.97L210.343 426.31C207.259 425.913 186.675 421.247 184.273 420.05L184.383 419.393C189.734 417.062 199.329 411.614 205.039 408.691Z"/><path fill="#091D37" d="M352.937 425.329C355.396 425.578 359.091 426.512 361.594 427.066C366.492 428.157 374.547 429.968 379.388 431.561C376.253 434.005 362.645 442.8 359.15 443.12C351.149 440.59 340.883 439.332 332.692 436.594C337.31 433.176 347.679 427.734 352.937 425.329Z"/><path fill="#091D37" d="M155.452 411.893C162.671 408.418 169.515 404.684 176.961 401.727C182.09 402.809 198.462 406.369 202.818 408.015C198.277 410.501 187.983 416.293 183.536 418.175C177.368 420.519 165.393 414.933 158.898 414.06C157.864 413.921 155.663 413.266 154.968 412.512L155.452 411.893Z"/><path fill="#091D37" d="M355.835 408.899C361.24 409.838 366.184 410.984 371.513 412.224C375.236 413.044 378.693 413.756 382.334 414.903C378.675 417.564 367.327 425.054 363.411 426.034C355.327 424.289 344.694 422.215 336.953 419.66C341.319 416.045 350.561 411.021 355.835 408.899Z"/><path fill="#091D37" d="M364.484 394.368C367.652 394.867 370.785 395.528 373.928 396.163C379.642 397.367 387.231 398.777 392.718 400.298C389.151 402.415 375.597 411.195 372.4 411.001C364.522 409.139 353.132 407.344 345.866 404.708C351.754 401.932 358.1 397.529 364.484 394.368Z"/><path fill="#091D37" d="M372.952 379.888C379.631 381.232 387.462 382.632 393.986 384.285C395.485 384.561 397.064 384.643 398.139 385.605C397.742 387.292 383.832 394.959 381.334 396.192C379.131 395.827 376.965 395.469 374.773 395.043C367.609 393.387 360.696 392.372 353.603 390.292C357.611 387.446 368.414 381.322 372.952 379.888Z"/><path fill="#091D37" d="M221.285 361.579C220.356 361.352 220.769 361.561 220.037 360.866C221.329 358.804 237.388 351.61 240.392 352.14C244.67 353.022 252.76 354.675 256.59 356.148C251.325 359.416 244.714 362.67 239.136 365.455C234.235 364.485 225.815 363.006 221.285 361.579Z"/><path fill="#091D37" d="M269.696 354.083C270.652 353.583 272.897 352.373 273.841 352.423C283.344 352.928 298.681 356.625 307.908 358.844L308.16 359.429L307.822 360.202C306.223 360.742 303.101 362.531 301.477 363.405C298.253 363.069 267.862 357.063 266.773 355.928C267.529 354.873 268.4 354.708 269.696 354.083Z"/><path fill="#091D37" d="M308.911 361.052C311.989 360.034 313.928 360.002 317.135 360.621C324.268 361.997 331.506 363.447 338.591 365.044L339.029 365.662L338.391 366.432C335.706 368.154 333.926 369.627 330.705 369.727C326.202 368.693 307.327 365.641 304.825 363.842C305.154 363.03 307.964 361.602 308.911 361.052Z"/><path fill="#091D37" d="M369.037 373.272C374.816 370.664 383.944 374.55 390.175 375.248C391.78 375.428 395.309 376.443 396.645 377.265C396.385 378.284 396.611 377.797 395.711 378.643C393.636 379.94 392.218 380.667 390.006 381.738C384.707 381.217 369.146 377.813 363.698 376.441L369.037 373.272Z"/><path fill="#091D37" d="M342.762 366.001C347.062 366.823 364.152 369.821 367.611 371.084C368.016 371.68 368.035 371.474 368.062 372.037C365.529 373.531 363.716 374.524 361.057 375.772C354.984 375.1 340.847 372.078 334.791 370.536C336.296 369.556 337.887 368.641 339.433 367.722L342.762 366.001Z"/><path fill="#091D37" d="M292.983 411.502C295.844 412.106 298.655 412.774 301.498 413.447C305.332 414.24 315.394 416.234 318.796 417.848C315.31 420.212 301.776 428.887 298.284 429.029C289.953 426.936 279.877 425.039 271.821 422.504C277.547 419.254 287.076 413.472 292.983 411.502Z"/><path fill="#091D37" d="M322.349 418.512C327.771 418.77 343.957 423.008 349.358 424.542C346.922 426.385 332.486 434.955 329.669 436.035C323.489 434.729 307.995 431.422 302.5 429.553C309.397 425.495 315.092 421.845 322.349 418.512Z"/><path fill="#091D37" d="M261.587 404.84C265.38 404.992 284.729 409.698 288.909 410.87C285.703 413.304 273.429 419.938 269.541 421.747C265.925 421.965 246.564 416.768 242.078 415.512C246.997 411.837 255.944 407.511 261.587 404.84Z"/><path fill="#091D37" d="M325.104 402.481C331.751 403.509 346.612 406.268 352.487 408.218C348.358 410.666 337.352 417.454 333.599 418.918C328.733 418.635 311.316 414.366 306.508 412.747C312.874 409.262 318.54 405.748 325.104 402.481Z"/><path fill="#091D37" d="M268.959 389.608C276.067 390.583 287.769 393.543 294.997 395.255C291.014 397.834 279.301 404.234 274.941 406.106C267.902 404.699 255.89 402.171 249.412 399.985C254.063 397.078 264.065 391.648 268.959 389.608Z"/><path fill="#091D37" d="M335.635 388.374C339.97 388.962 357.543 392.498 361.062 393.84C357.79 396.351 346.821 403.01 343.051 404.201C338.037 403.852 321.912 400.333 317.185 398.573C322.586 394.95 329.747 391.051 335.635 388.374Z"/><path fill="#091D37" d="M297.839 396.071L310.333 398.669C313.143 399.351 320.235 400.834 322.497 401.749C318.543 404.176 305.898 412.125 302.005 412.068C294.519 410.529 285.614 408.742 278.357 406.548C282.734 403.3 293.004 398.384 297.839 396.071Z"/><path fill="#091D37" d="M343.33 373.939C350.702 375.156 361.618 377.43 368.8 379.366C365.484 381.721 353.914 388.383 350.4 389.774C345.14 389.207 329.963 385.663 324.674 384.213C329.241 380.757 338.019 376.195 343.33 373.939Z"/><path fill="#091D37" d="M286.168 362.703C290.452 362.094 307.561 366.201 312.369 367.59C308.512 370.793 299.509 375.407 294.881 377.596C290.756 377.558 272.614 373.536 268.766 371.92C273.648 368.692 280.841 365.306 286.168 362.703Z"/><path fill="#091D37" d="M241.168 383.964C244.529 383.458 262.494 387.695 266.079 389.025C261.358 392.002 252.537 396.424 247.47 399.061C244.428 399.714 226.108 394.893 222.583 393.559C226.33 390.771 236.584 385.457 241.168 383.964Z"/><path fill="#091D37" d="M278.739 376.314C281.904 376.207 300.685 380.433 304.593 381.413C299.656 385.423 292.727 388.639 287.011 391.598C282.509 391.325 265.604 387.434 261.075 386.06C265.437 383.096 274.018 378.72 278.739 376.314Z"/><path fill="#091D37" d="M307.842 382.122L317.829 384.182L332.756 387.558C328.602 389.997 316.108 398.054 312.32 397.811C304.659 396.241 296.659 394.712 289.238 392.338C294.268 389.253 302.605 384.566 307.842 382.122Z"/><path fill="#091D37" d="M235.821 398.831C239.707 398.923 254.752 402.862 258.435 404.381C254.268 406.627 242.498 413.505 238.804 414.89C231.228 413.187 222.925 411.225 215.53 408.921C222.499 405.65 228.491 402.07 235.821 398.831Z"/><path fill="#091D37" d="M315.588 368.064C320.414 368.933 325.015 369.913 329.808 370.959C333.219 371.714 336.907 372.607 340.326 373.203C335.316 376.071 324.305 383.905 318.69 382.982C313.345 382.186 302.334 379.857 297.57 378.166C302.224 375.137 310.633 370.737 315.588 368.064Z"/><path fill="#091D37" d="M251.41 370.71C255.294 370.219 271.783 374.382 276.076 375.666C271.119 378.745 263.985 382.714 258.765 385.208C254.05 385.293 238.815 381.165 234.08 379.715C238.383 376.917 246.483 373.224 251.41 370.71Z"/><path fill="#091D37" d="M260.496 356.831C263.612 357.09 280.689 360.387 283.072 361.548L283.035 362.206C280.559 363.887 268.184 370.62 265.518 371.428C259.97 370.729 246.919 367.878 241.924 366.058C246.817 363.083 255.115 358.407 260.496 356.831Z"/><path fill="#091D37" d="M270.372 423.769C278.223 426.201 289.047 428.069 297.373 430.314C310.258 432.966 323.41 436.112 336.246 439.092C342.934 440.644 351.764 442.447 358.262 444.285L420.606 458.769C421.905 459.259 421.822 458.977 422.271 459.896C421.41 462.224 416.097 464.308 414.812 465.705C411.129 468.087 406.521 471.239 402.715 473.202C386.946 469.25 252.505 437.579 249.916 435.608L250.214 434.765C256.996 431.289 263.477 427.155 270.372 423.769Z"/><path fill="#091D37" d="M125.606 405.875C131.826 402.652 138.414 399.485 144.744 396.46C146.8 395.478 148.562 394.593 150.67 395.419C157.739 397.041 166.576 398.99 173.417 401.141C167.059 404.561 160.469 407.571 154.196 410.953C153.831 411.01 151.307 411.916 150.792 412.093C143.117 410.457 133.108 408.051 125.606 405.875Z"/><path fill="#091D37" d="M523.836 493.083C532.756 494.947 542.716 497.717 551.628 499.997L555.187 501.321C551.982 504.071 548.44 506.577 545.004 509.026C536.78 507.23 521.125 503.487 513.223 500.895L517.926 497.114C520.033 495.823 521.812 494.406 523.836 493.083Z"/><path fill="#091D37" d="M489.79 485.085C492.732 484.956 516.983 491.196 520.792 492.449C519.307 493.731 517.761 495.111 516.218 496.306C514.38 497.738 512.628 498.924 510.699 500.233C504.472 499.425 487.227 494.307 480.469 492.465C482.878 490.273 487.086 486.729 489.79 485.085Z"/><path fill="#091D37" d="M588.011 415.76C595.35 417.235 613.077 420.334 619.363 422.288C615.613 425.087 614.68 426.25 609.939 427.121C602.443 425.083 590.957 423.253 583.185 421.844C581.8 421.314 581.798 421.585 581.226 420.594C582.174 418.736 586.01 416.896 588.011 415.76Z"/><path fill="#091D37" d="M622.876 422.815C626.617 423.574 649.659 427.824 650.831 429.198C650.471 430.184 650.061 430.398 649.258 431.07C644.513 434.656 641.308 433.589 635.775 432.506C630.128 431.401 624.489 430.157 618.857 428.972L615.011 427.926C617.35 426.328 620.432 424.088 622.876 422.815Z"/><path fill="#091D37" d="M555.1 409.539C564.411 410.621 575.332 412.939 584.383 415.164C581.853 417.203 579.12 419.858 575.866 420.07C571.91 419.272 550.738 415.437 548.471 414.391C548.303 413.584 548.586 413.554 549.196 412.595C551.455 411.861 552.968 410.545 555.1 409.539Z"/><path fill="#091D37" d="M525.379 402.996C533.533 404.455 543.992 406.601 551.998 408.636C550.674 409.673 549.341 410.737 548.001 411.75C547.6 411.996 546.601 412.534 546.244 412.679C542.768 414.092 520.182 409.102 517.598 407.998L517.66 407.387L519.151 406.419C521.249 405.141 523.098 403.943 525.379 402.996Z"/><path fill="#091D37" d="M401.396 377.915C404.708 378.443 426.541 382.402 427.944 383.627L428.028 384.336L421.188 388.262L395.954 383.258C395.197 383.13 393.328 382.503 392.505 382.252L396.109 380.181C397.742 379.452 399.743 378.496 401.396 377.915Z"/><path fill="#091D37" d="M241.638 350.723L241.145 350.395C242.774 348.406 248.677 346.805 251.161 347.276C253.63 347.743 268.489 350.49 269.569 351.382C269.239 352.488 269.516 352.004 268.642 352.845C266.797 353.891 264.959 354.699 263.032 355.579C256.81 354.359 247.545 352.594 241.638 350.723Z"/><path fill="#091D37" d="M557.675 501.757C566.275 503.381 581.134 507.177 589.404 509.848C586.448 512.849 583.638 515.286 580.146 517.645C577.1 517.806 552.516 511.128 548.556 509.798C551.537 506.675 554.296 504.387 557.675 501.757Z"/><path fill="#102A56" d="M357.965 470.986C355.266 470.056 350.426 469.41 347.34 468.532C325.657 462.366 303.503 457.862 281.692 452.122C280.592 451.833 275.803 450.244 275.309 450.221C276.376 450.406 276.44 450.323 277.398 449.7C280.332 450.251 283.31 450.925 286.195 451.699C310.114 458.118 335.367 462.578 359.132 469.381C370.536 472.234 381.941 474.885 393.378 477.584C398.378 478.763 404.718 479.74 409.376 481.13C408.724 481.247 408.273 481.368 407.675 481.654C408.196 481.915 407.963 481.73 408.362 482.224C403.746 482.612 396.781 479.802 392.037 479.036C380.785 477.217 369.045 472.94 357.965 470.986Z"/><path fill="#091D37" d="M241.345 440.412C242.568 440.292 244.283 440.612 245.31 441.364L245.047 441.645C239.374 442.699 229.406 449.355 223.894 452.607L200.694 466.056C188.485 473.082 174.721 479.99 163.028 487.398C162.167 488.056 161.392 488.765 160.358 488.097C161.213 486.715 166.097 483.551 167.782 482.634C192.562 469.143 216.7 454.05 241.345 440.412Z"/><defs><linearGradient id="gradient_2" gradientUnits="userSpaceOnUse" x1="783.40723" y1="276.09137" x2="265.80032" y2="94.472008"><stop offset="0" stop-color="#0A264A"/><stop offset="1" stop-color="#104871"/></linearGradient></defs><path fill="url(#gradient_2)" d="M307.218 0L315.378 0C318.475 1.00483 337.194 1.85761 342.015 2.20298L411.277 7.14642L673.804 25.1658L762.745 31.1938L787.045 32.9374C795.627 33.5259 806.609 32.8603 813.315 38.8175C816.947 43.5072 818.676 46.6428 818.541 52.6842C817.513 59.2364 816.339 65.7086 815.163 72.2339C813.264 81.2513 811.736 90.9468 810.101 100.073L800.188 155.728L771.983 312.222C770.851 312.589 770.551 312.411 769.407 312.116C768.782 311.536 768.294 311.335 768.405 310.305C768.821 306.447 769.893 301.806 770.589 297.986L776.315 265.83L803.406 114.567L811.074 72.5562C812.309 65.7143 814.054 57.806 814.36 50.8934C814.522 47.2292 812.338 43.7975 809.867 41.1911C807.388 38.5758 801.444 37.7594 797.881 37.4544C787.533 36.5686 777.048 36.115 766.668 35.3569L676.49 29.1301L485.04 15.7789L364.897 7.3472L327.564 4.51704C321.536 4.06569 315.227 3.44141 309.243 3.36809C300.84 3.26513 297.003 9.80309 295.726 17.2123C294.169 25.258 292.675 33.2874 291.153 41.3176L281.413 93.3842L257.415 220.436L243.515 293.862C241.758 303.096 236.694 322.551 238.851 330.943L239.053 333.405C238.27 333.456 237.966 333.218 237.24 332.887C234.955 329.428 235.251 323.597 235.946 319.714C239.58 299.422 243.577 279.177 247.386 258.918L272.773 124.409L287.454 46.5532C289.599 35.1737 291.74 19.6476 295.451 8.77529C297.027 4.15946 302.848 1.55105 307.218 0Z"/><path fill="#143466" d="M318.046 112.3C321.181 104.009 322.896 74.4945 329.021 70.4906C336.333 69.2774 346.947 70.6412 354.664 71.2497L383.153 73.4957L503.27 83.3305L534.831 85.8558C539.447 86.2191 548.692 86.7335 552.876 87.709C554.185 88.8902 556.561 90.876 556.379 92.6495C555.068 105.436 551.664 122.688 549.048 135.075C548.772 136.017 548.126 140.489 547.92 141.661L545.219 156.287L533.479 219.456C531.76 228.493 530.22 238.154 528.025 247.075C527.605 248.779 526.549 251.092 525.09 252.096C522.909 253.597 521.014 253.554 518.48 253.314C510.022 252.514 501.425 251.133 492.997 249.956L440.764 242.46L332.909 227.272C323.837 225.944 314.721 224.853 305.673 223.416C300.793 222.715 297.309 219.83 298.036 214.586C298.621 210.37 299.556 206.082 300.368 201.882L305.099 177.457C309.32 156.19 313.452 133.293 318.046 112.3Z"/><path fill="#102A56" d="M318.046 112.3C321.181 104.009 322.896 74.4945 329.021 70.4906C336.333 69.2774 346.947 70.6412 354.664 71.2497L383.153 73.4957L503.27 83.3305L534.831 85.8558C539.447 86.2191 548.692 86.7335 552.876 87.709C554.185 88.8902 556.561 90.876 556.379 92.6495C555.068 105.436 551.664 122.688 549.048 135.075C540.871 134.897 528.03 133.225 519.573 132.363L470.811 127.503L318.046 112.3Z"/><path fill="#385698" d="M385.283 96.2072C393.287 95.6673 395.364 103.863 388.341 108.537C380.638 109.2 378.565 100.619 385.283 96.2072Z"/><path fill="#385698" d="M365.671 94.9665C373.882 94.3559 375.545 101.854 369.431 106.774C361.945 108.291 358.778 99.4583 365.671 94.9665Z"/><path fill="#385698" d="M346.43 93.7174C349.486 92.6669 352.812 94.3105 353.832 97.3755C354.853 100.441 353.177 103.749 350.101 104.74C347.068 105.717 343.814 104.069 342.807 101.046C341.8 98.0229 343.417 94.7535 346.43 93.7174Z"/><path fill="#102A56" d="M330.178 189.499C335.496 189.342 351.88 191.747 357.905 192.508L410.427 199.463C419.608 200.651 429.427 201.759 438.57 203.357C439.589 203.586 440.235 204.033 440.835 204.846C443.001 207.781 441.346 210.572 438.828 212.477C437.179 212.739 435.25 212.455 433.6 212.235C400.339 207.801 367.041 203.618 333.793 199.088C332.836 198.957 329.778 198.447 329.128 197.919C325.891 195.295 328.157 191.393 330.178 189.499Z"/><path fill="#102A56" d="M339.538 140.635C344.713 140.84 350.71 141.732 355.909 142.36L379.637 145.109L399.63 147.319C402.172 147.595 408.374 147.807 410.469 148.666C415.519 150.736 413.117 155.79 410.199 158.205C406.314 158.247 400.888 157.502 396.893 157.072L376.352 154.838L353.374 152.307C348.196 151.746 333.247 152.224 335.963 144.722C336.794 142.425 337.493 141.792 339.538 140.635Z"/><path fill="#102A56" d="M333.478 165.432C337.627 165.318 348.302 167.072 352.821 167.561C360.349 168.471 367.871 169.24 375.373 170.328C382.919 171.424 382.91 175.993 377.986 180.829C375.204 180.726 371.631 180.137 368.799 179.772C357.365 178.298 345.89 177.171 334.489 175.495C328.076 174.553 329.527 168.166 333.478 165.432Z"/><path fill="#102A56" d="M606.478 90.9463C609.411 90.7771 619.038 91.8641 622.458 92.1815L654.912 95.2028L706.516 99.8962C715.627 100.726 724.754 101.452 733.841 102.555C739.108 103.001 741.16 106.11 740.28 111.272C737.459 127.819 733.787 144.296 731.04 160.877C730.374 164.897 728.718 167.662 725.308 169.876C719.741 170.055 706.104 168.016 699.922 167.364L643.571 161.367L612.824 158.125C607.455 157.565 601.585 157.171 596.316 155.991C592.498 154.995 590.787 151.731 591.56 147.971C595.03 131.075 597.685 113.968 601.161 97.1106C601.778 94.1206 603.84 92.2175 606.478 90.9463Z"/><path fill="#143466" d="M613.131 111.027C615.82 110.854 622.415 111.702 625.4 112.006L645.662 114.022L686.519 118.185C694.205 118.948 701.957 119.625 709.63 120.489C710.895 120.782 712.976 120.706 713.919 121.701C716.332 124.247 714.939 126.913 712.745 128.93C709.546 129.111 703.034 128.291 699.693 127.958L677.145 125.707C657.007 123.706 636.782 121.917 616.647 119.859C615.418 119.592 612.767 119.578 611.87 118.592C609.648 116.153 611.029 112.908 613.131 111.027Z"/><path fill="#143466" d="M610.463 129.016C615.192 128.695 680.401 135.001 684.285 136.499C687.016 138.934 686.177 141.587 684.133 144.218C679.473 144.749 610.981 137.415 610.007 136.619C609.124 135.898 608.662 135.167 608.589 134.006C608.467 132.038 609.266 130.502 610.463 129.016Z"/><path fill="#143466" d="M664.983 344.962C649.102 373.11 604.968 371.138 590.358 342.334C572.348 306.829 602.622 261.6 643.211 274.768C663.011 279.128 673.184 300.528 673.094 319.343L640.745 319.82C636.658 319.875 630.627 320.184 626.766 320.061C628.627 321.672 633.781 324.547 636.044 326.09C644.718 332.003 657.076 338.383 664.983 344.962Z"/><path fill="#102A56" d="M643.211 274.768C663.011 279.128 673.184 300.528 673.094 319.343L640.745 319.82C636.658 319.875 630.627 320.184 626.766 320.061C630.773 306.037 640.284 289.05 643.211 274.768Z"/><path fill="#143466" d="M299.954 261.7L302.14 261.961C313.233 263.391 325.628 265.628 336.75 267.431L389.747 275.905L428.856 282.294C435.242 283.357 441.724 284.23 448.041 285.614C453.74 286.862 453.392 292.244 448.892 295.135C440.799 294.107 431.046 292.165 422.8 290.847L354.338 279.772L316.011 273.844C310.817 273.029 303.945 272.281 298.956 270.992C294.327 269.796 294.718 263.884 299.954 261.7Z"/><path fill="#143466" d="M735.519 187.831C736.437 187.663 736.94 188.085 737.79 188.54C739.962 191.937 735.285 194.791 733.207 196.649C719.512 208.897 720.847 213.333 701.751 207.573C673.859 200.784 675.935 248.583 648.286 243.392C630.908 240.13 632.055 213.838 619.1 210.967C605.915 208.044 598.111 233.351 588.501 239.004C581.641 243.04 576.385 241.827 568.548 240.289C567.386 239.995 567.435 239.987 566.439 239.288C565.727 237.748 565.82 238.409 566.017 236.786C569.523 231.413 580.198 240.911 588.002 232.955C597.472 223.3 603.864 202.815 620.451 205.873C636.865 209.076 633.641 235.839 650.306 238.43C666.248 240.909 672.2 212.784 684.372 205.518C696.221 198.446 704.145 203.275 715.862 205.408C720.661 202.375 730.057 192.277 735.519 187.831Z"/><path fill="#143466" d="M296.445 280.569C300.993 280.783 309.322 282.348 313.981 283.125L345.016 288.415L367.961 292.255C372.567 293.004 377.388 293.633 381.903 294.706C386.777 295.865 387.867 301.554 382.817 303.929C378.802 303.724 367.266 301.498 362.732 300.736L320.307 293.486C313.557 292.304 306.943 291.203 300.007 290.033C295.709 289.309 290.811 288.195 293.548 282.204C293.99 281.238 295.47 280.856 296.445 280.569Z"/><defs><linearGradient id="gradient_3" gradientUnits="userSpaceOnUse" x1="412.23831" y1="620.94513" x2="408.5015" y2="335.63818"><stop offset="0" stop-color="#010F2B" stop-opacity="0"/><stop offset="1" stop-color="#093A60" stop-opacity="0.011764706"/></linearGradient></defs><path fill="url(#gradient_3)" d="M820.67 352.091C821.483 346.886 820.128 336.302 821 330.243L821 616L0 616L0 453.151C0.854684 454.344 1.35601 455.355 2.0394 456.64L1.21879 457.291C1.42106 458.717 8.34281 466.421 10.3378 467.448C27.6858 476.379 47.1044 481.215 65.8725 486.324C74.1028 488.565 84.8062 489.056 93.2554 491.499C100.966 493.312 106.591 494.382 114.303 495.3C121.342 496.137 129.545 498.327 136.794 498.911C137.179 498.387 137.182 498.269 137.759 497.959L137.839 497.794C148.133 500.284 160.863 504.338 171.158 507.358L230.824 524.766L424.235 579.434L480.966 594.938C493.931 598.455 523.222 607.965 535.197 604.146L536.142 604.576C535.28 605.275 533.396 605.492 532.219 605.727L532.196 606.133C534.225 607.05 537.123 606.553 539.568 606.815C547.086 607.492 548.123 606.263 554.403 602.328C567.606 594.056 579.154 584.216 591.036 574.23C603.143 564.321 614.848 554.292 626.165 543.502C628.88 540.914 644.174 527.573 646.833 526.458C647.621 527.468 647.384 528.144 647.454 529.637C645.498 542.032 640.791 561.408 644.355 573.333C647.704 584.538 662.11 586.84 672.02 589.559L699.236 597.034L728.099 605.062C735.634 607.159 751.308 612.332 758.462 609.458C760.669 611.372 761.935 608.793 765.675 608.986C779.427 607.111 783.218 598.839 785.646 586.336C786.883 579.961 788.007 573.678 789.062 567.26L796.822 519.117C797.743 513.628 799.44 508.016 800.393 502.413C802.485 490.116 804.376 477.795 806.605 465.52C808.827 453.666 811.262 441.821 813.079 429.895C813.906 423.753 814.872 417.663 815.99 411.566C817.302 404.406 818.346 397.189 819.111 389.951C819.167 389.413 819.611 388.969 819.796 388.531C820.845 386.036 819.687 382.52 819.994 379.783C820.247 377.419 820.787 375.401 820.793 373.112C820.812 366.175 820.956 358.997 820.67 352.091Z"/><path fill="#102A56" d="M664.801 421.91C665.482 419.59 666.176 414.319 666.581 411.774L669.603 392.362L678.623 335.725C679.815 328.165 680.861 318.684 682.89 311.424C687.129 296.257 703.795 301.646 715.017 303.653L756.465 310.787C760.951 311.526 769.621 313.443 773.805 313.5C775.932 313.459 782.142 314.538 784.391 315.037L784.766 315.118C793.93 317.039 804.64 316.223 810.682 325.178C812.92 328.495 814.182 333.338 813.673 337.28C812.114 349.372 809.67 361.884 807.595 373.912L795.567 444.218L778.382 545.605C775.749 561.019 773.239 576.578 770.442 591.965C769.03 599.73 766.744 603.9 760.126 608.236C759.479 608.659 758.92 608.863 758.462 609.458C751.308 612.332 735.634 607.159 728.099 605.062L699.236 597.034L672.02 589.559C662.11 586.84 647.704 584.538 644.355 573.333C640.791 561.408 645.498 542.032 647.454 529.637C647.783 528.301 648.105 525.702 648.324 524.241C648.816 521.09 649.197 518.046 649.581 514.885C650.059 512.862 650.324 510.204 650.593 508.092C650.296 507.288 658.641 458.634 659.554 455.453C660.409 450.913 661.625 443.529 662.031 439.055C658.069 438.634 653.585 437.453 649.606 436.623L629.732 432.566C626.054 431.823 620.006 429.956 616.663 431.417C617.476 429.22 618.898 430.876 620.025 429.697L617.96 429.527L617.977 429.178L618.857 428.972C624.489 430.157 630.128 431.401 635.775 432.506C641.308 433.589 644.513 434.656 649.258 431.07C649.542 431.806 649.599 432.177 650.162 432.717L654.993 429.422C657.044 429.778 662.316 430.264 663.225 431.534C663.676 429.766 664.427 424.048 664.801 421.91Z"/><path fill="#091D37" d="M654.993 429.422C657.044 429.778 662.316 430.264 663.225 431.534L662.486 437.346C661.324 438.231 650.196 435.765 648.766 434.356L648.862 433.66L650.162 432.717L654.993 429.422Z"/><path fill="#091D37" d="M696.075 305.532C700.785 305.269 710.365 307.258 715.253 308.089L743.176 312.791L780.128 318.837C787.175 320.034 802.428 321.414 806.877 327.48C812.546 335.21 807.648 351.877 806.038 360.966L799.751 396.007C798.73 401.465 798.103 408.135 797.093 413.934L785.339 481.174L771.331 563.629C769.857 572.2 768.775 580.866 767.176 589.425C765.979 595.834 764.01 599.457 759.025 603.44C754.62 605.804 748.513 605.945 743.728 604.792C718.717 598.861 694.232 590.677 669.328 584.339C651.44 579.786 645.303 574.516 647.917 554.928C650.037 539.042 652.787 523.18 655.337 507.342L668.222 426.712L679.875 354.103C681.878 341.728 683.952 329.2 686.042 316.827C686.339 315.069 687.43 312.15 688.429 310.66C690.565 307.473 692.462 306.351 696.075 305.532Z"/><path fill="#102A56" d="M699.702 311.013C703.976 309.621 714.57 313.598 715.153 318.765C715.986 321.702 718.733 326.175 721.85 326.75C737.353 329.609 754.682 333.811 770.284 335.487C775.711 332.415 776.764 328.425 783.133 326.214C787.074 327.007 791.284 326.9 794.926 328.8C802.53 332.768 803.389 339.942 802.156 347.584C798.905 367.726 795.246 387.733 791.759 407.808L775.781 501.441L768.385 545.875C766.788 555.781 762.452 587.429 758.972 594.038C751.522 604.449 741.307 598.385 731.427 595.999C712.107 591.333 693.005 585.906 673.823 580.701C661.938 577.475 650.69 575.25 652.549 559.985C654.4 544.795 656.874 529.748 659.29 514.625L669.067 452.362L680.44 379.122C683.277 360.402 685.989 341.645 689.362 323.015C690.453 316.993 693.045 311.748 699.702 311.013Z"/><path fill="#143466" d="M696.33 412.802C702.365 412.373 753.502 423.199 759.16 425.338C762.017 426.418 763.54 427.774 764.773 430.556C767.16 435.942 765.487 447.27 763.374 452.59C762.086 455.836 759.964 457.426 756.865 458.74C753.014 458.873 698.766 447.086 694.031 445.288C691.13 444.186 689.398 442.888 688.147 439.941C686.064 435.034 687.689 424.401 689.563 419.644C690.912 416.22 692.985 414.274 696.33 412.802Z"/><path fill="#143466" d="M684.693 477.711C688.838 477.528 706.372 482.009 711.551 483.137C723.275 485.77 734.954 488.385 746.663 491.1C753.728 492.737 755.533 495.713 754.475 503.002C753.69 508.412 753.681 511.609 748.308 514.401C743.062 514.756 715.148 506.987 708.235 505.661C699.971 503.731 692.162 502.185 683.947 499.924C675.853 497.697 678.09 489.343 679.556 483.17C680.187 480.516 682.353 478.83 684.693 477.711Z"/><path fill="#143466" d="M703.908 353.871C708.167 353.475 766.203 365.18 772.126 367.165C773.854 367.744 774.929 368.695 775.677 370.375C776.998 373.34 776.362 379.282 775.247 382.263C774.248 384.933 772.885 386.251 770.4 387.453C766.833 387.727 737.511 381.051 732.029 380.004C722.425 377.89 712.791 376.35 703.241 373.982C696.495 372.309 697.488 367.343 698.378 361.71C698.973 357.939 700.484 355.633 703.908 353.871Z"/><defs><linearGradient id="gradient_4" gradientUnits="userSpaceOnUse" x1="262.00357" y1="549.9151" x2="277.04568" y2="507.94815"><stop offset="0" stop-color="#0E3854" stop-opacity="0.97254902"/><stop offset="1" stop-color="#000D38"/></linearGradient></defs><path fill="url(#gradient_4)" d="M0 452.95C3.78722 452.1 16.669 456.602 21.0904 457.871L55.3337 467.664L156.842 497.068L436.157 577.896C451.39 582.248 466.531 586.679 481.734 591.229C494.716 595.115 508.417 599.785 521.799 602.063C529.821 603.428 536.195 601.923 543.623 599.006C540.422 601.97 539.277 602.604 535.197 604.146C523.222 607.965 493.931 598.455 480.966 594.938L424.235 579.434L230.824 524.766L171.158 507.358C160.863 504.338 148.133 500.284 137.839 497.794C134.702 496.563 128.996 495.064 125.635 494.08L103.269 487.536L34.5012 467.452C24.9285 464.671 14.9448 461.984 5.46134 458.903C4.27596 458.518 3.0027 457.465 2.0394 456.64C1.35601 455.355 0.854684 454.344 0 453.151L0 452.95Z"/><defs><linearGradient id="gradient_5" gradientUnits="userSpaceOnUse" x1="796.49298" y1="464.6705" x2="787.52222" y2="463.12143"><stop offset="0" stop-color="#010F22" stop-opacity="0.59607846"/><stop offset="1" stop-color="#000F23" stop-opacity="0.65098041"/></linearGradient></defs><path fill="url(#gradient_5)" d="M791.482 314.574C800.38 316.527 806.41 316.166 814.742 321.317C817.001 322.713 819.447 325.092 821 326.021L821 330.243C820.128 336.302 821.483 346.886 820.67 352.091C819.892 356.139 818.597 360.073 817.976 364.136C816.518 373.681 814.259 383.064 812.513 392.544L789.396 524.415C786.669 539.569 784.938 555.086 781.919 570.239C779.218 583.799 778.746 600.671 765.675 608.986C761.935 608.793 760.669 611.372 758.462 609.458C758.92 608.863 759.479 608.659 760.126 608.236C766.744 603.9 769.03 599.73 770.442 591.965C773.239 576.578 775.749 561.019 778.382 545.605L795.567 444.218L807.595 373.912C809.67 361.884 812.114 349.372 813.673 337.28C814.182 333.338 812.92 328.495 810.682 325.178C804.64 316.223 793.93 317.039 784.766 315.118L784.391 315.037C786.946 315.166 788.965 314.868 791.482 314.574Z"/><path fill="#091D37" fill-opacity="0.20784314" d="M765.675 608.986C778.746 600.671 779.218 583.799 781.919 570.239C784.938 555.086 786.669 539.569 789.396 524.415L812.513 392.544C814.259 383.064 816.518 373.681 817.976 364.136C818.597 360.073 819.892 356.139 820.67 352.091C820.956 358.997 820.812 366.175 820.793 373.112C820.787 375.401 820.247 377.419 819.994 379.783C819.687 382.52 820.845 386.036 819.796 388.531C819.611 388.969 819.167 389.413 819.111 389.951C818.346 397.189 817.302 404.406 815.99 411.566C814.872 417.663 813.906 423.753 813.079 429.895C811.262 441.821 808.827 453.666 806.605 465.52C804.376 477.795 802.485 490.116 800.393 502.413C799.44 508.016 797.743 513.628 796.822 519.117L789.062 567.26C788.007 573.678 786.883 579.961 785.646 586.336C783.218 598.839 779.427 607.111 765.675 608.986Z"/><defs><linearGradient id="gradient_6" gradientUnits="userSpaceOnUse" x1="602.60022" y1="557.87762" x2="597.862" y2="552.44373"><stop offset="0" stop-color="#051428" stop-opacity="0.5411765"/><stop offset="1" stop-color="#021127" stop-opacity="0.63921571"/></linearGradient></defs><path fill="url(#gradient_6)" d="M548.025 595.339C560.636 583.687 577.047 570.228 590.351 558.967L650.593 508.092C650.324 510.204 650.059 512.862 649.581 514.885L649.181 514.33C647.089 516.156 646.299 517.792 646.138 520.587C647.736 521.147 647.367 520.779 648.354 521.936L648.324 524.241C648.105 525.702 647.783 528.301 647.454 529.637C647.384 528.144 647.621 527.468 646.833 526.458C644.174 527.573 628.88 540.914 626.165 543.502C614.848 554.292 603.143 564.321 591.036 574.23C579.154 584.216 567.606 594.056 554.403 602.328C548.123 606.263 547.086 607.492 539.568 606.815C540.626 605.533 542.377 605.036 543.731 603.991C546.102 602.16 550.113 598.743 551.789 596.415L551.618 595.838C549.872 596.218 549.414 596.509 548.025 595.339Z"/><path fill="#091D37" fill-opacity="0.53725493" d="M815.163 72.2339C816.339 65.7086 817.513 59.2364 818.541 52.6842L818.821 55.5031C820.086 57.2572 820.329 68.683 819.902 70.9621C818.965 75.9648 817.691 80.9383 816.959 86.0596L805.154 173.14C804.078 180.783 803.289 189.391 802.07 196.826C800.283 206.874 798.073 217.278 796.5 227.246C794.84 237.761 793.478 247.477 791.477 258.004L786.301 284.966C785.131 290.803 783.566 296.702 782.907 302.611C782.397 307.19 781.602 309.175 785.472 312.323L785.017 313.928L784.123 314.328C781.713 313.915 776.027 310.29 776.38 307.788C778.847 287.58 784.336 267.728 787.914 247.776C791.558 227.463 794.68 206.893 798.417 186.569L807.173 138.477C807.691 135.619 808.217 132.722 808.804 129.877C812.787 110.546 813.002 90.9188 818.099 71.7204C818.722 69.3712 819.055 63.7254 818.826 61.2582C817.787 61.5912 817.083 71.8099 815.635 72.9809L815.163 72.2339Z"/><defs><linearGradient id="gradient_7" gradientUnits="userSpaceOnUse" x1="799.36823" y1="186.65581" x2="793.5553" y2="185.70731"><stop offset="0" stop-color="#021125" stop-opacity="0.56862748"/><stop offset="1" stop-color="#001025" stop-opacity="0.60392159"/></linearGradient></defs><path fill="url(#gradient_7)" d="M815.163 72.2339L815.635 72.9809C817.083 71.8099 817.787 61.5912 818.826 61.2582C819.055 63.7254 818.722 69.3712 818.099 71.7204C813.002 90.9188 812.787 110.546 808.804 129.877C808.217 132.722 807.691 135.619 807.173 138.477L798.417 186.569C794.68 206.893 791.558 227.463 787.914 247.776C784.336 267.728 778.847 287.58 776.38 307.788C776.027 310.29 781.713 313.915 784.123 314.328L785.017 313.928L785.472 312.323C788.105 313.775 788.458 313.979 791.482 314.574C788.965 314.868 786.946 315.166 784.391 315.037C782.142 314.538 775.932 313.459 773.805 313.5C772.511 312.923 772.73 313.231 771.983 312.222L800.188 155.728L810.101 100.073C811.736 90.9468 813.264 81.2513 815.163 72.2339Z"/><defs><linearGradient id="gradient_8" gradientUnits="userSpaceOnUse" x1="823.11322" y1="70.325172" x2="817.21338" y2="69.412468"><stop offset="0" stop-color="#07121F" stop-opacity="0.36862746"/><stop offset="1" stop-color="#00122E" stop-opacity="0.49019608"/></linearGradient></defs><path fill="url(#gradient_8)" d="M821 51.657L821 86.4567L820.959 86.8592C820.274 93.9485 820.898 107.729 819.996 113.846C818.273 125.527 815.905 135.637 815.897 146.966C815.892 153.792 805.339 192.842 802.07 196.826C803.289 189.391 804.078 180.783 805.154 173.14L816.959 86.0596C817.691 80.9383 818.965 75.9648 819.902 70.9621C820.329 68.683 820.086 57.2572 818.821 55.5031C819.603 53.8207 819.879 53.2159 821 51.657Z"/><path fill="#091D37" fill-opacity="0.59215689" d="M543.623 599.006L548.025 595.339C549.414 596.509 549.872 596.218 551.618 595.838L551.789 596.415C550.113 598.743 546.102 602.16 543.731 603.991C542.377 605.036 540.626 605.533 539.568 606.815C537.123 606.553 534.225 607.05 532.196 606.133L532.219 605.727C533.396 605.492 535.28 605.275 536.142 604.576L535.197 604.146C539.277 602.604 540.422 601.97 543.623 599.006Z"/><path fill="#091D37" fill-opacity="0.43137255" d="M813.315 38.8175C813.852 38.6106 814.237 38.4332 814.68 38.064C818.706 38.8388 818.069 41.6962 821 41.2282L821 51.657C819.879 53.2159 819.603 53.8207 818.821 55.5031L818.541 52.6842C818.676 46.6428 816.947 43.5072 813.315 38.8175Z"/><path fill="#091D37" fill-opacity="0.5411765" d="M648.324 524.241L648.354 521.936C647.367 520.779 647.736 521.147 646.138 520.587C646.299 517.792 647.089 516.156 649.181 514.33L649.581 514.885C649.197 518.046 648.816 521.09 648.324 524.241Z"/></svg>