<svg version="1.2" xmlns="http://www.w3.org/2000/svg" viewBox="0 0 5906 2376" width="5906" height="2376">
	<title>logo wit text</title>
	<style>
		.s0 { fill: #d2d6da } 
		.s1 { fill: #d2d5d7 } 
		.s2 { fill: #d8d9db } 
		.s3 { fill: #d8d9dc } 
	</style>
	<g id="Warstwa_x0020_1">
		<g id="_1986813844544">
			<path fill-rule="evenodd" class="s0" d="m372.8 466.4c-42.9-35-59.4-45.9-94.1-95.9-12.2-17.6-25.7-40.6-34.2-60.9-76.2-182.4-21-231.1-2.7-309.5l20.3 47.5c19.6 45.7 52.3 76.5 91.2 105.7 253.3 190.6 677.8 132.1 1037.7 286 64.2 27.5 192.5 115.8 207.1 187 9.3 45.3-12 73.9-25.8 100.1 154.8 0 250.7 96.3 298.7 203.7 44.8 100.5 40.9 204.2 7.7 313.2-10.6 34.7-28.1 58.3-34.9 87.3l-13.6-33.9c-106.1-242.1-690.7-54-401.5 299.6l40.1 48.2c41.7 47.3 51.2 46.1 89.9 79.8-88.9 0-109.5-11.6-176.5-27.2 47.1 70.3 145.9 146.6 181.7 300.3 28.1 120.7 5.5 326-66.3 378.6-8.7-18.2-9.5-48.9-15.2-73.1-27.9-119.5-169.8-283.1-256.3-341l35.3 141.2c11 43.6 21.9 98 32.6 143.9-120.4-28.1-363.1-162.7-466.6-239.5-24.9-18.5-53.6-39.6-74.9-60.8-25.1-24.8-49-45.8-69.6-72.9-10-13.2-18.8-23.9-28.5-39.5l-25.7-42.1c0 90.3 58.8 251.3 95 305.4-51.6-12-139.3-63.4-178.4-93-30.3-22.9-47.9-34.5-74.4-61.4-154.8-157-202-232.8-202-476.9-39.3 45.2-81.7 223.8-61.1 312.3-122.6-82.1-152.8-269.5-142.1-413.6 14.1-189.8 168.6-366 176.1-394.2-21.2 14.2-43.7 27.7-66.6 42-122.9 76.8-138.3 123.9-164.2 141.3 0-98.3 66.4-238.4 119.4-315 37.2-54 156.9-193 220-207.7-8.9-12.1-108.7-67-135.8-183.3 51.9 34.7 130.8 61.1 217.3 61.1-12.4-16.9-38.7-26.1-59.1-42.8zm837.5 699.1c-30.8 25.6-23.1 16.6-45.3 49.7 39.8-9.3 150.7-115.2 413.2-87.4 48.6 5.1 87.3 23.2 129.8 33.1-49.3-67.4-312.4-149.6-497.7 4.6zm-310.1-513.7c49.3 0 69.7 8.2 111.5 17.4 34.6 7.6 75.9 20.8 105.8 23.3 0 56.5 0.7 82.9 25.8 116.7 55.4 74.3 153.8 54.7 205-21.7-172.8-91.4-216.1-142.5-448.1-142.5zm-271.5 1140.4l-1092.9 624.5zm1092.9-624.5l-13.6-6.8z"/>
			<path fill-rule="evenodd" class="s0" d="m2162.2 778.6h346.2c230.6 0 314.7 279 110.5 382.1l-8.7 4.8c36.7 3.1 85.1 36.9 102.1 60.8 38.4 54.1 40.4 83 40.4 149.7 0 118.7-106.4 210.4-224 210.4h-366.5zm400.5 237.6c0-120.1-133.1-101.8-230.8-101.8v196.8h108.6c66.7 0 122.2-28 122.2-95zm20.3 332.6c0-126.5-136.4-101.8-251.1-101.8v196.9h115.4c74.9 0 135.7-20 135.7-95.1z"/>
			<path fill-rule="evenodd" class="s1" d="m4282.7 1025.7c146.6-62.9 299.3 3.2 351.4 159.2 114.6 343.2-249 529.5-421.9 347.2v258c-97.8 0-169.7 15-169.7-20.4v-746.7h169.7v54.3c26-17.4 35.6-36.7 70.5-51.6zm165.7 396.4c41.5-44.9 35.3-82.7 35.3-141.2 0-191.4-271.5-155.5-271.5-40.7v135.8c0 72.3 148.2 141.2 236.2 46.1z"/>
			<path fill-rule="evenodd" class="s1" d="m5456 1085.7c149.5-149.7 460-101.9 460 161.3 0 137.1 3.9 101.8-27.1 101.8h-346.2c0 161.4 233.2 138.1 353 74.7v135.8c-25.3 5.8-52.4 20.1-80.5 28.1-100.5 28.9-275.6 17.6-361.8-61-17.9-16.4-43.3-57.1-54.3-81.5-27.1-60-26.1-99.2-26.1-164 0-90 36.7-148.8 83-195.2zm303.9 154.5c0-180.5-206.5-129.3-217.2 0z"/>
			<path fill-rule="evenodd" class="s1" d="m3540.2 1213.1c0 196.7 264.7 101.5 264.7 224 0 56.9-135.4 51-219.5 2.2-18.1-10.4-16.7-12.6-31.7-22.6v142.6c148.4 71.1 414.1 66 414.1-135.8 0-142.5-65.2-161.4-188.7-191.4-26.1-6.4-76-12.5-76-46.2 0-122.2 237.5-6.8 237.6-6.8v-142.5c-102.9-24-224.7-73-340.7 19-39.8 31.6-59.8 87.9-59.8 157.5z"/>
			<path fill-rule="evenodd" class="s1" d="m3180.4 1023h-108.6v122.2h108.6v291.9c0 133.9 98 162.9 203.6 162.9 41.4 0 62.1-12.7 95.1-20.4-13.4-23.7-6.8-85.7-6.8-115.4 0-25.9-2.1-2.5 6.8-20.3-18.6 1.5-135.8 55.1-135.8-67.9v-230.8h129v-122.2h-129v-176.5h-162.9z"/>
			<path fill-rule="evenodd" class="s1" d="m5162.5 1124.8v-101.8h-156.1v563.4h162.9c0-100.1-15.3-295 30.8-362.9 36.3-53.7 103.2-71.3 159.3-44.4v-169.7c-24.6-2-70.6-24.2-134.2 35.5z"/>
			<path fill-rule="evenodd" class="s1" d="m4728.1 1586.4h169.7v-563.4h-169.7z"/>
			<path fill-rule="evenodd" class="s1" d="m2847.8 1586.4h162.9v-563.4h-162.9z"/>
			<path fill-rule="evenodd" class="s1" d="m4714.5 839.7c0 129 190.1 125.8 190.1 6.8 0-129.8-190.1-113.3-190.1-6.8z"/>
			<path fill-rule="evenodd" class="s1" d="m2834.2 839.7c0 153.5 195.4 115.6 188.5 8.2-8.1-126.7-188.5-106-188.5-8.2z"/>
			<path fill-rule="evenodd" class="s2" d="m213.9 1756.1v6.8l8-5.7z"/>
			<path fill-rule="evenodd" class="s3" d="m10.3 1145.2c0.7 0.6 2-3 2-2.1v0.1c-0.1 0.1-2.7 1.3-2 2z"/>
			<path class="s1" d="m2575.2 1886.9l-72 270.2h-64.1l-46-176.2c-2.5-9.5-4-19.4-4.4-29.8h-0.7q-1.8 18.1-4.9 29.8l-47.1 176.2h-66.4l-72.1-270.2h63.1l40.2 183.2q2.6 12 3.7 30.3h1.1q0.9-14.3 5.5-31.2l50.2-182.3h61.2l45.8 184.5c1.8 7.4 3.2 16.9 4.3 28.7h0.9c0.4-10.1 1.8-20 4-29.7l39.2-183.5zm194.8 270.2h-160v-270.2h153.6v47.1h-96.1v63.7h89.4v46.9h-89.4v65.4h102.5zm44.3 0v-270.2h96c29.4 0 52.1 5.6 68 16.7 15.9 11.2 23.9 26.6 23.9 46.4 0 14.7-4.9 27.5-14.8 38.6q-14.9 16.5-37.4 22.9v0.6c18.8 2.3 34.1 9.4 45.6 21q17.4 17.4 17.4 43.8c0 24.5-8.7 44-26.2 58.5-17.4 14.5-41.2 21.7-71.5 21.7zm57.6-227.3v66.8h27.4q19.7 0 31.1-9.4c7.5-6.3 11.3-15 11.3-26.3 0-20.8-15.1-31.1-45.4-31.1zm0 110.3v74.1h34.2c14.6 0 25.9-3.3 34.1-10.1q12.3-10.1 12.3-28.1c0-11.4-4.1-20.2-12.2-26.5-8.1-6.3-19.7-9.4-34.7-9.4zm293.1 117v-270.2h93.4c95.9 0 143.9 43.9 143.9 131.7q0 62.6-40.3 100.6-40.3 37.9-104 37.9zm57.6-223.1v176h31.4c27.4 0 48.8-8.1 64.4-24.4 15.5-16.3 23.3-38.3 23.3-66.1q0-40.3-24.4-62.9c-16.2-15.1-37.4-22.6-63.4-22.6zm385.2 223.1h-160v-270.2h153.7v47.1h-96.2v63.7h89.4v46.9h-89.4v65.4h102.5zm268.1-270.2l-93.8 270.2h-65.1l-92.7-270.2h62.1l58.5 191c2.9 9.4 4.7 18.4 5.4 26.7h1c1-8.6 2.9-17.7 6-27.4l58.4-190.3zm193.1 270.2h-160v-270.2h153.7v47.1h-96.1v63.7h89.3v46.9h-89.3v65.4h102.4zm202.9 0h-158.6v-270.2h57.6v223.1h101zm9.9-131.5c0-42.4 12.4-76.8 37.1-103.4q37.1-39.8 98-39.8 57.9 0 93.2 38.5c23.6 25.7 35.3 58.8 35.3 99.1 0 42.1-12.2 76.3-36.7 102.5-24.5 26.2-56.5 39.3-96.2 39.3-38.7 0-70.2-12.7-94.3-38.1-24.3-25.4-36.4-58.1-36.4-98.1zm60.6-3.2c0 26.3 6.3 47.8 19 64.5q19 25 52.1 25 33.9 0 52.7-24c12.6-15.9 18.9-37.4 18.9-64.4 0-28.2-6.1-50.4-18.3-66.8q-18.3-24.4-51.6-24.4c-22.6 0-40.4 8.3-53.4 25.1q-19.4 25.1-19.4 65zm306.3 40.5v94.2h-57.6v-270.2h93c67.3 0 100.8 28.5 100.8 85.4 0 27.7-10.1 49.9-30.4 66.6-20.3 16.7-45.7 24.7-76.1 24zm0-131.3v87.2h24.9c33.9 0 50.8-14.7 50.8-44.2 0-28.7-16.8-43-50.3-43zm424.7 225.5v-164c0-15.1 0.7-34.1 2.2-57h-1.4c-3.5 17.3-6.2 28.9-8.3 34.7l-66.7 186.3h-45.9l-67.5-184.6q-2.4-6.6-8.5-36.4h-1.6c1.5 22.7 2.2 45.4 2.2 68.2v152.8h-51.9v-270.2h83.7l58.3 163.3q7.3 20.2 9.9 38h1.3c3.5-14.7 7.3-27.5 11.1-38.4l58.5-162.9h81.4v270.2zm280 0h-160v-270.2h153.7v47.1h-96.1v63.7h89.3v46.9h-89.3v65.4h102.4zm284.6 0h-59l-114.4-174.8q-8.9-13.6-12.9-22h-0.9c1.1 9.4 1.5 23.7 1.5 43.1v153.7h-54.6v-270.2h62.9l110.2 169.9q11 16.9 13.4 21.5h0.9c-1.2-6.6-1.7-19-1.7-37.4v-154h54.6zm249.3-223.1h-77.1v223.1h-57.8v-223.1h-76.9v-47.1h211.8z"/>
		</g>
	</g>
</svg>