<?xml version="1.0" encoding="UTF-8"?>
<!DOCTYPE svg PUBLIC "-//W3C//DTD SVG 1.1//EN" "http://www.w3.org/Graphics/SVG/1.1/DTD/svg11.dtd">
<!-- Creator: CorelDRAW X6 -->
<svg xmlns="http://www.w3.org/2000/svg" xml:space="preserve" width="300mm" height="125mm" version="1.1" style="shape-rendering:geometricPrecision; text-rendering:geometricPrecision; image-rendering:optimizeQuality; fill-rule:evenodd; clip-rule:evenodd"
viewBox="0 0 300000 125000"
 xmlns:xlink="http://www.w3.org/1999/xlink">
 <defs>
  <style type="text/css">
   <![CDATA[
    .fil0 {fill:black}
   ]]>
  </style>
 </defs>
 <g id="Warstwa_x0020_1">
  <metadata id="CorelCorpID_0Corel-Layer"/>
  <g id="Stripe.svg">
   <g>
    <path class="fil0" d="M298706 64725c0,-21332 -10333,-38165 -30082,-38165 -19832,0 -31832,16832 -31832,37998 0,25082 14166,37748 34498,37748 9916,0 17416,-2250 23082,-5416l0 -16666c-5666,2833 -12166,4583 -20416,4583 -8083,0 -15249,-2833 -16166,-12666l40748 0c0,-1083 167,-5416 167,-7416zm-41164 -7916c0,-9416 5750,-13333 10999,-13333 5083,0 10499,3916 10499,13333l-21499 0z"/>
    <path class="fil0" d="M204628 26561c-8166,0 -13416,3833 -16332,6500l-1083 -5166 -18332 0 0 97161 20832 -4416 83 -23582c3000,2167 7416,5250 14749,5250 14916,0 28498,-11999 28498,-38414 -83,-24166 -13833,-37331 -28415,-37331zm-5000 57414c-4916,0 -7833,-1750 -9833,-3916l-83 -30915c2167,-2417 5166,-4083 9916,-4083 7583,0 12833,8500 12833,19416 0,11166 -5166,19499 -12833,19499z"/>
    <polygon class="fil0" points="140215,21644 161130,17144 161130,229 140215,4645 "/>
    <rect class="fil0" x="140215" y="27977" width="20915" height="72913"/>
    <path class="fil0" d="M117799 34143l-1333 -6166 -17999 0 0 72913 20832 0 0 -49414c4916,-6416 13249,-5250 15833,-4333l0 -19166c-2667,-1000 -12416,-2833 -17332,6166z"/>
    <path class="fil0" d="M76135 9895l-20332 4333 -83 66746c0,12333 9250,21416 21582,21416 6833,0 11833,-1250 14583,-2750l0 -16916c-2667,1083 -15833,4916 -15833,-7416l0 -29582 15833 0 0 -17749 -15833 0 83 -18082z"/>
    <path class="fil0" d="M19805 49143c0,-3250 2667,-4500 7083,-4500 6333,0 14333,1917 20666,5333l0 -19582c-6916,-2750 -13749,-3833 -20666,-3833 -16916,0 -28165,8833 -28165,23582 0,22999 31665,19332 31665,29248 0,3833 -3333,5083 -8000,5083 -6916,0 -15749,-2833 -22749,-6666l0 19832c7750,3333 15583,4750 22749,4750 17332,0 29248,-8583 29248,-23499 -83,-24832 -31832,-20415 -31832,-29748z"/>
   </g>
  </g>
 </g>
</svg>
